<svg width="419" height="140" viewBox="0 0 419 140" fill="none" xmlns="http://www.w3.org/2000/svg">
<rect width="419" height="140" fill="#E5E5E5"/>
<g clip-path="url(#clip0)">
<rect width="419" height="140" fill="white"/>
<ellipse rx="40.527" ry="64.9284" transform="matrix(0.999818 0.019058 -0.0897797 0.995962 89.3489 74.4386)" fill="#0082FF"/>
<ellipse rx="14.0573" ry="32.591" transform="matrix(0.999818 0.019058 -0.0897797 0.995962 89.7729 73.6204)" fill="white"/>
<path d="M1.14366 0L76.7318 7.90166L64.7898 17.7132L35.5709 14.6588L9.21032 11.9032L1.14366 0Z" fill="black"/>
<path d="M10.7325 14.0732L63.4452 19.5836L56.5511 29.9229L45.3696 28.754L17.895 25.8819L10.7325 14.0732Z" fill="black"/>
<path d="M19.3267 28.0424L55.1316 31.7853L50.1517 42.3247L41.2004 41.389L26.8145 39.8851L19.3267 28.0424Z" fill="black"/>
<path d="M28.9154 42.1157L49.8016 44.299L46.0058 54.9621L40.7013 54.4076L36.3915 53.9571L28.9154 42.1157Z" fill="black"/>
<path d="M189.104 51.392C189.104 53.6 188.768 55.616 188.096 57.44C187.472 59.216 186.32 60.752 184.64 62.048C183.008 63.296 180.752 64.28 177.872 65C174.992 65.72 171.32 66.08 166.856 66.08C162.392 66.08 158.72 65.72 155.84 65C152.96 64.28 150.68 63.296 149 62.048C147.368 60.752 146.216 59.216 145.544 57.44C144.92 55.616 144.608 53.6 144.608 51.392V15.752C144.608 14.84 144.8 14.192 145.184 13.808C145.616 13.376 146.288 13.16 147.2 13.16H158.504C159.416 13.16 160.064 13.376 160.448 13.808C160.88 14.192 161.096 14.84 161.096 15.752V48.584C161.096 49.544 161.456 50.36 162.176 51.032C162.896 51.656 164.504 51.968 167 51.968C169.544 51.968 171.176 51.656 171.896 51.032C172.616 50.36 172.976 49.544 172.976 48.584V15.752C172.976 14.84 173.168 14.192 173.552 13.808C173.984 13.376 174.656 13.16 175.568 13.16H186.512C187.424 13.16 188.072 13.376 188.456 13.808C188.888 14.192 189.104 14.84 189.104 15.752V51.392ZM214.959 26.12V35.336H220.359C221.607 35.336 222.447 35.024 222.879 34.4C223.311 33.728 223.527 32.912 223.527 31.952V29.504C223.527 28.544 223.311 27.752 222.879 27.128C222.447 26.456 221.607 26.12 220.359 26.12H214.959ZM212.367 65H201.279C200.367 65 199.695 64.808 199.263 64.424C198.879 63.992 198.687 63.32 198.687 62.408V15.752C198.687 14.84 198.879 14.192 199.263 13.808C199.695 13.376 200.367 13.16 201.279 13.16H225.255C230.631 13.16 234.327 14.288 236.343 16.544C238.407 18.752 239.439 21.632 239.439 25.184V28.496C239.439 30.512 239.127 32.24 238.503 33.68C237.927 35.072 236.895 36.08 235.407 36.704C237.999 36.992 240.087 38.048 241.671 39.872C243.303 41.696 244.119 44.12 244.119 47.144V62.408C244.119 63.32 243.903 63.992 243.471 64.424C243.087 64.808 242.439 65 241.527 65H230.367C229.455 65 228.783 64.808 228.351 64.424C227.967 63.992 227.775 63.32 227.775 62.408V51.392C227.775 50.336 227.559 49.568 227.127 49.088C226.743 48.56 226.047 48.296 225.039 48.296H214.959V62.408C214.959 63.32 214.743 63.992 214.311 64.424C213.927 64.808 213.279 65 212.367 65ZM286.331 65H268.763C262.763 65 258.299 63.8 255.371 61.4C252.491 59 251.051 55.304 251.051 50.312V27.92C251.051 22.928 252.491 19.232 255.371 16.832C258.299 14.384 262.763 13.16 268.763 13.16H286.331C287.243 13.16 287.891 13.376 288.275 13.808C288.707 14.192 288.923 14.84 288.923 15.752V24.464C288.923 25.376 288.707 26.048 288.275 26.48C287.891 26.864 287.243 27.056 286.331 27.056H271.859C270.371 27.056 269.267 27.368 268.547 27.992C267.827 28.568 267.467 29.456 267.467 30.656V47.792C267.467 48.992 267.827 49.88 268.547 50.456C269.267 50.984 270.371 51.248 271.859 51.248H286.331C287.243 51.248 287.891 51.464 288.275 51.896C288.707 52.28 288.923 52.928 288.923 53.84V62.408C288.923 63.32 288.707 63.992 288.275 64.424C287.891 64.808 287.243 65 286.331 65ZM315.846 28.28L312.462 39.224H323.766L320.382 28.28C320.19 27.848 319.974 27.536 319.734 27.344C319.542 27.152 319.302 27.056 319.014 27.056H317.214C316.926 27.056 316.662 27.152 316.422 27.344C316.23 27.536 316.038 27.848 315.846 28.28ZM311.742 62.408C311.742 63.32 311.526 63.992 311.094 64.424C310.71 64.808 310.062 65 309.15 65H298.566C297.654 65 296.982 64.808 296.55 64.424C296.166 63.992 295.974 63.32 295.974 62.408V43.4C295.974 41.96 296.19 40.304 296.622 38.432C297.102 36.56 297.822 34.376 298.782 31.88L305.046 15.536C305.334 14.72 305.766 14.12 306.342 13.736C306.966 13.352 307.758 13.16 308.718 13.16H328.086C328.998 13.16 329.742 13.352 330.318 13.736C330.942 14.12 331.398 14.72 331.686 15.536L337.95 31.88C338.91 34.376 339.606 36.56 340.038 38.432C340.518 40.304 340.758 41.96 340.758 43.4V62.408C340.758 63.32 340.542 63.992 340.11 64.424C339.726 64.808 339.078 65 338.166 65H327.294C326.334 65 325.614 64.808 325.134 64.424C324.702 63.992 324.486 63.32 324.486 62.408V52.328H311.742V62.408ZM365.92 26.12V35.336H371.32C372.568 35.336 373.408 35.024 373.84 34.4C374.272 33.728 374.488 32.912 374.488 31.952V29.504C374.488 28.544 374.272 27.752 373.84 27.128C373.408 26.456 372.568 26.12 371.32 26.12H365.92ZM363.328 65H352.24C351.328 65 350.656 64.808 350.224 64.424C349.84 63.992 349.648 63.32 349.648 62.408V15.752C349.648 14.84 349.84 14.192 350.224 13.808C350.656 13.376 351.328 13.16 352.24 13.16H376.216C381.592 13.16 385.288 14.288 387.304 16.544C389.368 18.752 390.4 21.632 390.4 25.184V28.496C390.4 30.512 390.088 32.24 389.464 33.68C388.888 35.072 387.856 36.08 386.368 36.704C388.96 36.992 391.048 38.048 392.632 39.872C394.264 41.696 395.08 44.12 395.08 47.144V62.408C395.08 63.32 394.864 63.992 394.432 64.424C394.048 64.808 393.4 65 392.488 65H381.328C380.416 65 379.744 64.808 379.312 64.424C378.928 63.992 378.736 63.32 378.736 62.408V51.392C378.736 50.336 378.52 49.568 378.088 49.088C377.704 48.56 377.008 48.296 376 48.296H365.92V62.408C365.92 63.32 365.704 63.992 365.272 64.424C364.888 64.808 364.24 65 363.328 65Z" fill="black"/>
</g>
<defs>
<clipPath id="clip0">
<rect width="419" height="140" fill="white"/>
</clipPath>
</defs>
</svg>
